<svg width="25" height="24" viewBox="0 0 25 24" fill="none" xmlns="http://www.w3.org/2000/svg">
<path fill-rule="evenodd" clip-rule="evenodd" d="M21.7 12C21.7 17.302 17.4019 21.6 12.1 21.6C6.79807 21.6 2.5 17.302 2.5 12C2.5 6.69809 6.79807 2.40002 12.1 2.40002C17.4019 2.40002 21.7 6.69809 21.7 12ZM14.5 8.40002C14.5 9.72551 13.4255 10.8 12.1 10.8C10.7745 10.8 9.7 9.72551 9.7 8.40002C9.7 7.07454 10.7745 6.00002 12.1 6.00002C13.4255 6.00002 14.5 7.07454 14.5 8.40002ZM12.0999 13.2C9.67887 13.2 7.59273 14.634 6.64448 16.6989C7.96484 18.2305 9.91918 19.2 12.1 19.2C14.2807 19.2 16.235 18.2305 17.5554 16.699C16.6072 14.634 14.521 13.2 12.0999 13.2Z" fill="#06081F"/>
</svg>
