<svg width="25" height="24" viewBox="0 0 25 24" fill="none" xmlns="http://www.w3.org/2000/svg">
<path d="M13.7483 2.7515C13.2797 2.28287 12.5199 2.28287 12.0513 2.7515L3.65128 11.1515C3.18265 11.6201 3.18265 12.3799 3.65128 12.8486C4.11991 13.3172 4.8797 13.3172 5.34833 12.8486L5.6998 12.4971V20.4C5.6998 21.0628 6.23706 21.6 6.8998 21.6H9.2998C9.96255 21.6 10.4998 21.0628 10.4998 20.4V18C10.4998 17.3373 11.0371 16.8 11.6998 16.8H14.0998C14.7625 16.8 15.2998 17.3373 15.2998 18V20.4C15.2998 21.0628 15.8371 21.6 16.4998 21.6H18.8998C19.5625 21.6 20.0998 21.0628 20.0998 20.4V12.4971L20.4513 12.8486C20.9199 13.3172 21.6797 13.3172 22.1483 12.8486C22.617 12.3799 22.617 11.6201 22.1483 11.1515L13.7483 2.7515Z" fill="#06081F"/>
</svg>
